<svg width="97" height="101" viewBox="0 0 97 101" fill="none" xmlns="http://www.w3.org/2000/svg">
<path d="M69.4237 56.1422C71.1409 53.3481 72.1585 50.1809 72.3899 46.9095C72.6214 43.6381 72.06 40.3592 70.7534 37.3511C69.4467 34.3431 67.4334 31.6948 64.8844 29.6312C62.3355 27.5676 59.3262 26.1496 56.112 25.4977C52.8979 24.8458 49.5739 24.9791 46.4224 25.8865C43.2708 26.7938 40.3847 28.4484 38.0093 30.7095C35.6339 32.9707 33.8392 35.7718 32.7777 38.8748C31.7163 41.9779 31.4194 45.2913 31.9122 48.5336C32.6071 53.1806 31.6437 57.9239 29.1909 61.9315L27.7354 64.3235L46.5293 75.7598L47.9848 73.3679C50.4182 69.3685 54.1774 66.3496 58.6077 64.8368C63.1233 63.3007 66.953 60.2221 69.4237 56.1422Z" fill="white" stroke="#07571C" stroke-width="2" stroke-linecap="round" stroke-linejoin="round"/>
<path d="M46.5206 75.7547L27.7011 64.3027L24.868 68.9585L43.6875 80.4104L46.5206 75.7547Z" fill="white" stroke="#07571C" stroke-width="2" stroke-linecap="round" stroke-linejoin="round"/>
<path d="M24.892 68.9974L43.6859 80.4337L43.3064 81.0573C42.6543 82.129 41.6032 82.8977 40.3843 83.1944C39.1654 83.491 37.8785 83.2913 36.8069 82.6392L26.0602 76.0997C24.9886 75.4476 24.2199 74.3964 23.9232 73.1775C23.6265 71.9586 23.8262 70.6718 24.4784 69.6002L24.8578 68.9766L24.892 68.9974Z" fill="white" stroke="#07571C" stroke-width="2" stroke-linecap="round" stroke-linejoin="round"/>
<path d="M30.9856 85.4527L26.2274 82.5572C24.9926 81.8058 24.1069 80.5947 23.7651 79.1903C23.4232 77.7858 23.6533 76.3031 24.4047 75.0684L38.4745 83.63C38.1024 84.2414 37.6136 84.7736 37.0359 85.1961C36.4582 85.6185 35.803 85.9231 35.1076 86.0924C34.4122 86.2616 33.6902 86.2922 32.983 86.1825C32.2757 86.0727 31.597 85.8247 30.9856 85.4527Z" fill="white" stroke="#07571C" stroke-width="2" stroke-linecap="round" stroke-linejoin="round"/>
<path d="M71.8354 57.7402L79.8142 62.5955" stroke="#07571C" stroke-width="2" stroke-linecap="round" stroke-linejoin="round"/>
<path d="M23.3471 28.2344L31.4285 33.152" stroke="#07571C" stroke-width="2" stroke-linecap="round" stroke-linejoin="round"/>
<path d="M63.8955 25.1756L68.7612 17.1797" stroke="#07571C" stroke-width="2" stroke-linecap="round" stroke-linejoin="round"/>
<path d="M74.8358 39.7476L83.6936 37.599" stroke="#07571C" stroke-width="2" stroke-linecap="round" stroke-linejoin="round"/>
<path d="M19.4679 53.2295L28.4545 51.0423" stroke="#07571C" stroke-width="2" stroke-linecap="round" stroke-linejoin="round"/>
<path d="M45.8586 21.9026L43.7651 13.3008" stroke="#07571C" stroke-width="2" stroke-linecap="round" stroke-linejoin="round"/>
<path d="M59.3961 77.5262L57.3178 68.957" stroke="#07571C" stroke-width="2" stroke-linecap="round" stroke-linejoin="round"/>
</svg>
