<svg width="124" height="124" viewBox="0 0 124 124" fill="none" xmlns="http://www.w3.org/2000/svg">
<g clip-path="url(#clip0_484_62)">
<path d="M67.5368 74.0104C70.1162 71.1871 73.0778 69.9081 77.1963 68.8893C82.1506 67.9368 86.2745 64.7314 88.793 60.5573C91.8758 55.4479 92.8026 49.3232 91.3696 43.5304C89.9366 37.7376 86.2611 32.7514 81.1517 29.6686C76.0423 26.5858 69.9176 25.659 64.1248 27.092C58.332 28.525 53.3458 32.2005 50.263 37.3099C48.3257 40.5207 46.6432 44.7612 48.2988 51.4537C49.1903 55.0574 49.5669 58.7885 48.2718 62.3867" stroke="#07571C" stroke-width="2" stroke-linecap="round" stroke-linejoin="round"/>
<path d="M40.5234 75.2305L59.7884 86.8542" stroke="#07571C" stroke-width="2" stroke-linecap="round" stroke-linejoin="round"/>
<path d="M35.9844 90.0107L48.8277 97.7599" stroke="#07571C" stroke-width="2" stroke-linecap="round" stroke-linejoin="round"/>
</g>
<defs>
<clipPath id="clip0_484_62">
<rect width="90" height="90" fill="white" transform="translate(46.4961) rotate(31.1051)"/>
</clipPath>
</defs>
</svg>
