<svg width="20" height="20" viewBox="0 0 20 20" fill="none" xmlns="http://www.w3.org/2000/svg">
<path d="M18.4219 0.641602C17.5664 -0.213867 16.1836 -0.213867 15.3281 0.641602L14.1523 1.81348L17.9766 5.6377L19.1523 4.46191C20.0078 3.60645 20.0078 2.22363 19.1523 1.36816L18.4219 0.641602ZM6.73438 9.23535C6.49609 9.47363 6.3125 9.7666 6.20703 10.0908L5.05078 13.5596C4.9375 13.8955 5.02734 14.2666 5.27734 14.5205C5.52734 14.7744 5.89844 14.8604 6.23828 14.7471L9.70703 13.5908C10.0273 13.4854 10.3203 13.3018 10.5625 13.0635L17.0977 6.52441L13.2695 2.69629L6.73438 9.23535ZM3.75 2.29395C1.67969 2.29395 0 3.97363 0 6.04395V16.0439C0 18.1143 1.67969 19.7939 3.75 19.7939H13.75C15.8203 19.7939 17.5 18.1143 17.5 16.0439V12.2939C17.5 11.6025 16.9414 11.0439 16.25 11.0439C15.5586 11.0439 15 11.6025 15 12.2939V16.0439C15 16.7354 14.4414 17.2939 13.75 17.2939H3.75C3.05859 17.2939 2.5 16.7354 2.5 16.0439V6.04395C2.5 5.35254 3.05859 4.79395 3.75 4.79395H7.5C8.19141 4.79395 8.75 4.23535 8.75 3.54395C8.75 2.85254 8.19141 2.29395 7.5 2.29395H3.75Z" fill="white"/>
</svg>
